ffmpeg started on 2016-12-07 at 04:39:04
Report written to "Output/x264/results/ffmpeg/Tcrowd_run_2160p50slow1000k.log"
Command line:
Tools/ffmpeg/ffmpeg -i Output/x264/encoded/crowd_run_2160p50slow1000k.mkv -c:v rawvideo -pix_fmt yuv420p Output/x264/transcoded/crowd_run_2160p50slow1000k.yuv
ffmpeg version N-82227-gdb23fde Copyright (c) 2000-2016 the FFmpeg developers
  built with gcc 5.4.0 (Ubuntu 5.4.0-6ubuntu1~16.04.2) 20160609
  configuration: --prefix=/home/jaroslav/ffmpeg_build --pkg-config-flags=--static --extra-cflags=-I/home/jaroslav/ffmpeg_build/include --extra-ldflags=-L/home/jaroslav/ffmpeg_build/lib --bindir=/home/jaroslav/bin --enable-gpl --enable-libass --enable-libfdk-aac --enable-libfreetype --enable-libmp3lame --enable-libopus --enable-libtheora --enable-libvorbis --enable-libvpx --enable-libx264 --enable-libx265 --enable-nvenc --enable-libmfx --enable-libxvid --enable-libgsm --enable-libopencore-amrnb --enable-version3 --enable-nonfree
  libavutil      55. 35.100 / 55. 35.100
  libavcodec     57. 66.101 / 57. 66.101
  libavformat    57. 57.100 / 57. 57.100
  libavdevice    57.  2.100 / 57.  2.100
  libavfilter     6. 66.100 /  6. 66.100
  libswscale      4.  3.100 /  4.  3.100
  libswresample   2.  4.100 /  2.  4.100
  libpostproc    54.  2.100 / 54.  2.100
Input #0, matroska,webm, from 'Output/x264/encoded/crowd_run_2160p50slow1000k.mkv':
  Metadata:
    ENCODER         : Lavf57.57.100
  Duration: 00:00:10.00, start: 0.000000, bitrate: 942 kb/s
    Stream #0:0: Video: h264 (High), yuv420p(progressive), 3840x2160 [SAR 1:1 DAR 16:9], 50 fps, 50 tbr, 1k tbn, 100 tbc (default)
    Metadata:
      ENCODER         : Lavc57.66.101 libx264
      DURATION        : 00:00:10.000000000
Output #0, rawvideo, to 'Output/x264/transcoded/crowd_run_2160p50slow1000k.yuv':
  Metadata:
    encoder         : Lavf57.57.100
    Stream #0:0: Video: rawvideo (I420 / 0x30323449), yuv420p, 3840x2160 [SAR 1:1 DAR 16:9], q=2-31, 200 kb/s, 50 fps, 50 tbn, 50 tbc (default)
    Metadata:
      DURATION        : 00:00:10.000000000
      encoder         : Lavc57.66.101 rawvideo
Stream mapping:
  Stream #0:0 -> #0:0 (h264 (native) -> rawvideo (native))
Press [q] to stop, [?] for help
frame=   16 fps=0.0 q=-0.0 size=  194400kB time=00:00:00.32 bitrate=4976640.0kbits/s speed=0.633x    frame=   33 fps= 32 q=-0.0 size=  400950kB time=00:00:00.66 bitrate=4976640.0kbits/s speed=0.644x    frame=   50 fps= 32 q=-0.0 size=  607500kB time=00:00:01.00 bitrate=4976640.0kbits/s speed=0.649x    frame=   67 fps= 33 q=-0.0 size=  814050kB time=00:00:01.34 bitrate=4976640.0kbits/s speed=0.652x    frame=   84 fps= 33 q=-0.0 size= 1020600kB time=00:00:01.68 bitrate=4976640.0kbits/s speed=0.654x    frame=  101 fps= 33 q=-0.0 size= 1227150kB time=00:00:02.02 bitrate=4976640.0kbits/s speed=0.655x    frame=  118 fps= 33 q=-0.0 size= 1433700kB time=00:00:02.36 bitrate=4976640.0kbits/s speed=0.657x    frame=  135 fps= 33 q=-0.0 size= 1640250kB time=00:00:02.70 bitrate=4976640.0kbits/s speed=0.657x    frame=  152 fps= 33 q=-0.0 size= 1846800kB time=00:00:03.04 bitrate=4976640.0kbits/s speed=0.658x    frame=  169 fps= 33 q=-0.0 size= 2053350kB time=00:00:03.38 bitrate=4976640.0kbits/s speed=0.659x    frame=  186 fps= 33 q=-0.0 size= 2259900kB time=00:00:03.72 bitrate=4976640.0kbits/s speed=0.658x    frame=  203 fps= 33 q=-0.0 size= 2466450kB time=00:00:04.06 bitrate=4976640.0kbits/s speed=0.658x    frame=  220 fps= 33 q=-0.0 size= 2673000kB time=00:00:04.40 bitrate=4976640.0kbits/s speed=0.658x    frame=  237 fps= 33 q=-0.0 size= 2879550kB time=00:00:04.74 bitrate=4976640.0kbits/s speed=0.657x    frame=  254 fps= 33 q=-0.0 size= 3086100kB time=00:00:05.08 bitrate=4976640.0kbits/s speed=0.657x    frame=  269 fps= 33 q=-0.0 size= 3268350kB time=00:00:05.38 bitrate=4976640.0kbits/s speed=0.652x    frame=  284 fps= 32 q=-0.0 size= 3450600kB time=00:00:05.68 bitrate=4976640.0kbits/s speed=0.648x    frame=  299 fps= 32 q=-0.0 size= 3632850kB time=00:00:05.98 bitrate=4976640.0kbits/s speed=0.633x    frame=  312 fps= 31 q=-0.0 size= 3790800kB time=00:00:06.24 bitrate=4976640.0kbits/s speed=0.624x    frame=  326 fps= 31 q=-0.0 size= 3960900kB time=00:00:06.52 bitrate=4976640.0kbits/s speed=0.62x    frame=  334 fps= 30 q=-0.0 size= 4058100kB time=00:00:06.68 bitrate=4976640.0kbits/s speed=0.606x    frame=  344 fps= 30 q=-0.0 size= 4179600kB time=00:00:06.88 bitrate=4976640.0kbits/s speed=0.595x    frame=  354 fps= 29 q=-0.0 size= 4301100kB time=00:00:07.08 bitrate=4976640.0kbits/s speed=0.587x    frame=  367 fps= 29 q=-0.0 size= 4459050kB time=00:00:07.34 bitrate=4976640.0kbits/s speed=0.584x    frame=  381 fps= 29 q=-0.0 size= 4629150kB time=00:00:07.62 bitrate=4976640.0kbits/s speed=0.582x    frame=  392 fps= 29 q=-0.0 size= 4762800kB time=00:00:07.84 bitrate=4976640.0kbits/s speed=0.576x    frame=  403 fps= 29 q=-0.0 size= 4896450kB time=00:00:08.06 bitrate=4976640.0kbits/s speed=0.57x    frame=  414 fps= 28 q=-0.0 size= 5030100kB time=00:00:08.28 bitrate=4976640.0kbits/s speed=0.562x    frame=  426 fps= 28 q=-0.0 size= 5175900kB time=00:00:08.52 bitrate=4976640.0kbits/s speed=0.559x    frame=  433 fps= 27 q=-0.0 size= 5260950kB time=00:00:08.66 bitrate=4976640.0kbits/s speed=0.539x    frame=  445 fps= 27 q=-0.0 size= 5406750kB time=00:00:08.90 bitrate=4976640.0kbits/s speed=0.536x    frame=  460 fps= 27 q=-0.0 size= 5589000kB time=00:00:09.20 bitrate=4976640.0kbits/s speed=0.537x    frame=  474 fps= 27 q=-0.0 size= 5759100kB time=00:00:09.48 bitrate=4976640.0kbits/s speed=0.538x    frame=  491 fps= 27 q=-0.0 size= 5965650kB time=00:00:09.82 bitrate=4976640.0kbits/s speed=0.541x    frame=  500 fps= 27 q=-0.0 Lsize= 6075000kB time=00:00:10.00 bitrate=4976640.0kbits/s speed=0.541x    
video:6075000kB audio:0kB subtitle:0kB other streams:0kB global headers:0kB muxing overhead: 0.000000%
